<svg width="14" height="14" viewBox="0 0 14 14" fill="none" xmlns="http://www.w3.org/2000/svg">
<path d="M12.6597 13.8397L7.89719 9.07636C5.77858 10.5826 2.85922 10.2141 1.18125 8.2288C-0.496719 6.24345 -0.37351 3.30352 1.46469 1.46553C3.30241 -0.37327 6.24263 -0.497011 8.22835 1.18087C10.2141 2.85875 10.5827 5.7784 9.07636 7.89719L13.8389 12.6605L12.6605 13.8389L12.6597 13.8397ZM4.99969 1.66718C3.41944 1.66683 2.0561 2.77609 1.73509 4.32339C1.41407 5.87069 2.22362 7.43075 3.67359 8.05906C5.12356 8.68736 6.81544 8.21122 7.72489 6.9189C8.63435 5.62659 8.51141 3.87329 7.43052 2.72053L7.93469 3.22053L7.36636 2.65386L7.35636 2.64386C6.73285 2.01651 5.88419 1.6648 4.99969 1.66718Z" fill="white"/>
</svg>
